{
	"asset":{
		"version":"2.0",
		"generator":"Created using the official Cinema 4D glTF Exporter 1.000x284978"
	},
	"scenes":[{
		"nodes":[0,
		1]
	}],
	"nodes":[{
		"name":"Cylinder",
		"translation":[0.0,
		0.0,
		0.0],
		"rotation":[0.0,
		-0.9998766183853149,
		0.0,
		0.015707317739725114],
		"scale":[1.0,
		1.0,
		1.0],
		"mesh":0
	},
	{
		"name":"Camera",
		"translation":[63.813323974609378,
		103.52355194091797,
		2083.647216796875],
		"rotation":[0.029348362237215043,
		-0.006005711387842894,
		-0.00017633693641982973,
		-0.9995511770248413],
		"scale":[1.0,
		1.0,
		1.0],
		"camera":0
	}],
	"meshes":[{
		"name":"Cylinder",
		"primitives":[{
			"attributes":{
				"POSITION":1,
				"NORMAL":2,
				"TEXCOORD_0":3
			},
			"indices":0
		}]
	}],
	"cameras":[{
		"type":"perspective",
		"perspective":{
			"znear":0.009999999776482582,
			"zfar":10000000000.0,
			"aspectRatio":1.7777777910232545,
			"yfov":0.5483348965644836
		}
	}],
	"accessors":[{
		"count":1344,
		"bufferView":0,
		"type":"SCALAR",
		"componentType":5123,
		"byteOffset":0,
		"min":[0],
		"max":[260]
	},
	{
		"count":261,
		"bufferView":1,
		"type":"VEC3",
		"componentType":5126,
		"byteOffset":0,
		"min":[-572.068603515625,
		-357.67333984375,
		113.79151916503906],
		"max":[572.068603515625,
		357.67333984375,
		583.2760620117188]
	},
	{
		"count":261,
		"bufferView":1,
		"type":"VEC3",
		"componentType":5126,
		"byteOffset":12,
		"min":[-0.9700312614440918,
		0.0,
		0.242980495095253],
		"max":[0.9700312614440918,
		0.0,
		1.0]
	},
	{
		"count":261,
		"bufferView":1,
		"type":"VEC2",
		"componentType":5126,
		"byteOffset":24,
		"min":[0.53125,
		0.0],
		"max":[0.96875,
		1.0]
	}],
	"bufferViews":[{
		"buffer":0,
		"byteOffset":0,
		"byteLength":2688,
		"target":34963
	},
	{
		"buffer":0,
		"byteOffset":2688,
		"byteLength":8352,
		"target":34962,
		"byteStride":32
	}],
	"buffers":[{
		"uri":"data:application/octet-stream;base64,",
		"byteLength":11040
	}]
}